<?xml version="1.0" encoding="UTF-8" standalone="no"?>
<svg width="2997px" height="750px" viewBox="0 0 2997 750" version="1.1" xmlns="http://www.w3.org/2000/svg" xmlns:xlink="http://www.w3.org/1999/xlink" xmlns:sketch="http://www.bohemiancoding.com/sketch/ns">
    <title>Slice 2</title>
    <description>Created with Sketch (http://www.bohemiancoding.com/sketch)</description>
    <defs/>
    <g id="Page-2" stroke="none" stroke-width="1" fill="none" fill-rule="evenodd" sketch:type="MSPage">
        <g id="Group-copy-2" sketch:type="MSLayerGroup" transform="translate(3.000000, 8.000000)">
            <g id="Group-copy-6" sketch:type="MSShapeGroup">
                <path d="M534.790869,585.154265 C545.317099,575.319175 562.363706,575.28103 572.930061,585.154265 L718.698951,721.192574 C729.225181,731.027664 725.740959,739 711.021625,739 L396.705993,739 C381.933158,739 378.455624,731.065809 389.028667,721.192574 L534.790869,585.154265 L534.790869,585.154265 Z" id="Triangle_47_copy_4-copy-2" fill="#AFAFAF"/>
                <path d="M3.21582031,732.499023 L695.589844,37.4843751 C703.288734,45.3079204 709.628971,53.5425557 711.055848,60.6193681 L737.716286,192.441269 C740.722426,207.293669 734.363818,228.024003 723.509854,238.752258 L237.360328,719.585008 C226.506364,730.299563 205.304077,739 189.98939,739 L14.6484375,741.261719 C7.00841061,741.261719 7.28515625,739 3.21582031,732.499023 Z" id="Path-copy-2" fill="#D9D9D9"/>
                <path d="M0,720.028179 L0,549.858164 C0,534.525155 8.67967613,513.254771 19.3754975,502.373057 L499.05404,14.9805798 C509.756696,4.10580967 530.437562,-2.2621113 545.254521,0.744769595 L676.761866,27.4733714 C684.231855,28.9941725 691.592493,33.4663003 697.435897,39.4522848 L7.36747312,739 C2.80210017,734.034827 0,727.368301 0,720.028179 L0,720.028179 Z" id="Path_345_copy_7-copy-2" fill="#AFAFAF"/>
            </g>
            <path d="M1245.02031,598.909237 L1255.81679,552.042509 L1142.71076,552.042509 L1142.71076,323.3125 L1084.61538,323.3125 L1084.61538,598.909237 L1245.02031,598.909237 Z M1485.70114,598.909237 L1664.61432,598.909237 L1664.61432,551.023667 L1543.79651,551.023667 L1543.79651,477.66705 L1634.28134,477.66705 L1634.28134,432.328585 L1543.28239,432.328585 L1543.28239,368.650965 L1652.27548,368.650965 L1660.50138,323.3125 L1485.70114,323.3125 L1485.70114,598.909237 Z M2019.42943,600.4375 L2127.9084,323.3125 L2067.75655,323.3125 L2012.74589,466.459789 C2010.34666,472.233255 2008.03315,478.855661 2005.80529,486.327206 C2003.57743,493.798751 2001.60667,500.84567 1999.89293,507.468176 C1998.17919,514.090681 1996.80822,519.609353 1995.77998,524.024357 L1994.23763,530.646829 L1992.18115,524.024357 C1991.15291,519.269737 1989.78194,513.58126 1988.06821,506.958755 C1986.35447,500.336249 1984.3837,493.28933 1982.15585,485.817785 C1979.92799,478.34624 1977.78585,471.723834 1975.72937,465.950368 L1924.83165,323.3125 L1861.08098,323.3125 L1967.50347,600.4375 L2019.42943,600.4375 Z M2342.36919,598.909237 L2521.28238,598.909237 L2521.28238,551.023667 L2400.46456,551.023667 L2400.46456,477.66705 L2490.94939,477.66705 L2490.94939,432.328585 L2399.95045,432.328585 L2399.95045,368.650965 L2508.94354,368.650965 L2517.16943,323.3125 L2342.36919,323.3125 L2342.36919,598.909237 Z M2920.31166,598.909237 L2989.71763,598.909237 L2951.67288,543.382353 C2945.16068,533.873114 2938.56289,524.703629 2931.87932,515.873621 C2925.19575,507.043614 2919.62619,499.741987 2915.17047,493.96852 C2911.05751,487.855438 2906.9446,483.440501 2902.83163,480.723575 C2922.71097,478.685881 2939.07691,470.789935 2951.92993,457.035501 C2964.78296,443.281066 2971.20937,425.536414 2971.20937,403.801011 C2971.20937,379.009067 2961.61259,358.632433 2942.41875,342.670496 C2933.50732,335.538567 2922.62525,330.529311 2909.77223,327.642578 C2896.91921,324.755845 2881.23875,323.3125 2862.7304,323.3125 L2769.16086,323.3125 L2769.16086,598.909237 L2826.228,598.909237 L2826.228,484.289522 C2832.7402,484.289522 2838.0527,485.647964 2842.16567,488.36489 C2846.27864,491.081815 2850.0488,494.308116 2853.47627,498.043888 C2857.24649,502.458892 2861.9592,508.82659 2867.61453,517.147174 C2873.26986,525.467758 2881.58135,537.948446 2892.54927,554.589614 C2892.54927,554.589614 2881.58135,537.948446 2892.54927,554.589614 L2920.31166,598.909237 Z M2911.05753,404.819853 C2911.05753,413.989476 2909.34382,421.121298 2905.91634,426.215533 C2902.48887,431.309768 2897.94754,435.130387 2892.29221,437.677505 C2886.63688,440.224622 2880.21046,441.75287 2873.01277,442.262293 C2865.81508,442.771717 2858.61749,443.026425 2851.4198,443.026425 L2826.228,443.026425 L2826.228,367.122702 L2853.99039,367.122702 C2860.50259,367.122702 2867.18606,367.462313 2874.04101,368.141544 C2880.89595,368.820775 2887.06531,370.433926 2892.54927,372.981043 C2898.03322,375.528161 2902.48887,379.34878 2905.91634,384.443015 C2909.34382,389.53725 2911.05753,396.329461 2911.05753,404.819853 C2911.05753,404.819853 2911.05753,396.329461 2911.05753,404.819853 Z" id="lever-copy-5" fill="#3F484B" sketch:type="MSShapeGroup"/>
        </g>
    </g>
</svg>